<svg width="25" height="25" viewBox="0 0 25 25" fill="none" xmlns="http://www.w3.org/2000/svg">
<path d="M16.2207 9.7207L16.3923 9.89228C17.7256 11.2256 18.3923 11.8923 18.3923 12.7207C18.3923 13.5491 17.7256 14.2158 16.3923 15.5491L16.2207 15.7207" stroke="#05E2BF" stroke-width="1.5" stroke-linecap="round"/>
<path d="M14.0156 7.89062L12.7215 12.7203L11.4274 17.5499" stroke="#05E2BF" stroke-width="1.5" stroke-linecap="round"/>
<path d="M9.2204 9.7207L9.04883 9.89228C7.7155 11.2256 7.04883 11.8923 7.04883 12.7207C7.04883 13.5491 7.7155 14.2158 9.04883 15.5491L9.2204 15.7207" stroke="#05E2BF" stroke-width="1.5" stroke-linecap="round"/>
<path d="M2.7207 12.7207C2.7207 8.00666 2.7207 5.64964 4.18517 4.18517C5.64964 2.7207 8.00666 2.7207 12.7207 2.7207C17.4347 2.7207 19.7918 2.7207 21.2562 4.18517C22.7207 5.64964 22.7207 8.00666 22.7207 12.7207C22.7207 17.4347 22.7207 19.7918 21.2562 21.2562C19.7918 22.7207 17.4347 22.7207 12.7207 22.7207C8.00666 22.7207 5.64964 22.7207 4.18517 21.2562C2.7207 19.7918 2.7207 17.4347 2.7207 12.7207Z" stroke="#05E2BF" stroke-width="1.5"/>
</svg>
