<svg width="25" height="25" viewBox="0 0 25 25" fill="none" xmlns="http://www.w3.org/2000/svg">
<path d="M2.7207 12.5508C2.7207 7.83674 2.7207 5.47971 4.18517 4.01525C5.64964 2.55078 8.00666 2.55078 12.7207 2.55078C17.4347 2.55078 19.7918 2.55078 21.2562 4.01525C22.7207 5.47971 22.7207 7.83674 22.7207 12.5508C22.7207 17.2648 22.7207 19.6218 21.2562 21.0863C19.7918 22.5508 17.4347 22.5508 12.7207 22.5508C8.00666 22.5508 5.64964 22.5508 4.18517 21.0863C2.7207 19.6218 2.7207 17.2648 2.7207 12.5508Z" stroke="#05E2BF" stroke-width="1.5"/>
<path d="M7.7207 14.5508L9.51759 12.3945C10.2296 11.5401 10.5857 11.1128 11.054 11.1128C11.5224 11.1128 11.8784 11.5401 12.5905 12.3945L12.8509 12.7071C13.563 13.5615 13.919 13.9887 14.3874 13.9887C14.8557 13.9887 15.2118 13.5615 15.9238 12.7071L17.7207 10.5508" stroke="#05E2BF" stroke-width="1.5" stroke-linecap="round"/>
</svg>
