<svg width="25" height="25" viewBox="0 0 25 25" fill="none" xmlns="http://www.w3.org/2000/svg">
<path d="M3.7207 10.7207C3.7207 6.94947 3.7207 5.06385 4.89228 3.89228C6.06385 2.7207 7.94947 2.7207 11.7207 2.7207H13.7207C17.4919 2.7207 19.3776 2.7207 20.5491 3.89228C21.7207 5.06385 21.7207 6.94947 21.7207 10.7207V14.7207C21.7207 18.4919 21.7207 20.3776 20.5491 21.5491C19.3776 22.7207 17.4919 22.7207 13.7207 22.7207H11.7207C7.94947 22.7207 6.06385 22.7207 4.89228 21.5491C3.7207 20.3776 3.7207 18.4919 3.7207 14.7207V10.7207Z" stroke="#05E2BF" stroke-width="1.5"/>
<path d="M6.7207 12.7207C6.7207 11.3065 6.7207 10.5994 7.16004 10.16C7.59938 9.7207 8.30649 9.7207 9.7207 9.7207H15.7207C17.1349 9.7207 17.842 9.7207 18.2814 10.16C18.7207 10.5994 18.7207 11.3065 18.7207 12.7207V16.7207C18.7207 18.1349 18.7207 18.842 18.2814 19.2814C17.842 19.7207 17.1349 19.7207 15.7207 19.7207H9.7207C8.30649 19.7207 7.59938 19.7207 7.16004 19.2814C6.7207 18.842 6.7207 18.1349 6.7207 16.7207V12.7207Z" stroke="#05E2BF" stroke-width="1.5"/>
<path d="M7.7207 6.7207H12.7207" stroke="#05E2BF" stroke-width="1.5" stroke-linecap="round"/>
</svg>
