<svg width="25" height="25" viewBox="0 0 25 25" fill="none" xmlns="http://www.w3.org/2000/svg">
<path d="M5.69953 10.2359C3.71365 9.44151 2.7207 9.04433 2.7207 8.55078C2.7207 8.05723 3.71365 7.66005 5.69953 6.8657L8.508 5.74231C10.4939 4.94796 11.4868 4.55078 12.7207 4.55078C13.9546 4.55078 14.9475 4.94796 16.9334 5.74231L19.7419 6.8657C21.7278 7.66005 22.7207 8.05723 22.7207 8.55078C22.7207 9.04433 21.7278 9.44151 19.7419 10.2359L16.9334 11.3592C14.9475 12.1536 13.9546 12.5508 12.7207 12.5508C11.4868 12.5508 10.4939 12.1536 8.508 11.3592L5.69953 10.2359Z" stroke="#05E2BF" stroke-width="1.5"/>
<path d="M6.48683 10.5508L5.69953 10.8657C3.71365 11.6601 2.7207 12.0572 2.7207 12.5508C2.7207 13.0443 3.71365 13.4415 5.69953 14.2359L8.508 15.3592C10.4939 16.1536 11.4868 16.5508 12.7207 16.5508C13.9546 16.5508 14.9475 16.1536 16.9334 15.3592L19.7419 14.2359C21.7278 13.4415 22.7207 13.0443 22.7207 12.5508C22.7207 12.0572 21.7278 11.6601 19.7419 10.8657L18.9546 10.5508" stroke="#05E2BF" stroke-width="1.5"/>
<path d="M6.48683 14.5508L5.69953 14.8657C3.71365 15.6601 2.7207 16.0572 2.7207 16.5508C2.7207 17.0443 3.71365 17.4415 5.69953 18.2359L8.508 19.3592C10.4939 20.1536 11.4868 20.5508 12.7207 20.5508C13.9546 20.5508 14.9475 20.1536 16.9334 19.3592L19.7419 18.2359C21.7278 17.4415 22.7207 17.0443 22.7207 16.5508C22.7207 16.0572 21.7278 15.6601 19.7419 14.8657L18.9546 14.5508" stroke="#05E2BF" stroke-width="1.5"/>
</svg>
