<svg width="40" height="40" viewBox="0 0 40 40" fill="none" xmlns="http://www.w3.org/2000/svg">
<g clip-path="url(#clip0_2161_120)">
<rect width="40" height="40" rx="20" fill="#1C1C20"/>
<circle cx="19.9996" cy="25.6012" r="14.4" fill="white"/>
<path d="M20 8C11.16 8 4 15.1668 4 24.0059C4 31.079 8.584 37.0771 14.94 39.1919C15.74 39.3426 16.0333 38.8471 16.0333 38.4223C16.0333 38.0422 16.02 37.0351 16.0133 35.7008C11.5627 36.6659 10.624 33.5535 10.624 33.5535C9.896 31.7061 8.844 31.212 8.844 31.212C7.39467 30.2198 8.956 30.2402 8.956 30.2402C10.5627 30.3515 11.4067 31.8894 11.4067 31.8894C12.8333 34.3367 15.152 33.6295 16.0667 33.2209C16.2107 32.1853 16.6227 31.4808 17.08 31.0804C13.5267 30.68 9.792 29.3036 9.792 23.1711C9.792 21.4242 10.412 19.9963 11.4387 18.8764C11.2587 18.472 10.7187 16.8445 11.5787 14.6402C11.5787 14.6402 12.9187 14.2112 15.9787 16.2812C17.2587 15.9256 18.6187 15.7491 19.9787 15.741C21.3387 15.7491 22.6987 15.9256 23.9787 16.2812C27.0187 14.2112 28.3587 14.6402 28.3587 14.6402C29.2187 16.8445 28.6787 18.472 28.5187 18.8764C29.5387 19.9963 30.1587 21.4242 30.1587 23.1711C30.1587 29.3199 26.4187 30.6732 22.8587 31.0668C23.4187 31.5473 23.9387 32.5287 23.9387 34.0285C23.9387 36.1704 23.9187 37.8916 23.9187 38.4114C23.9187 38.8308 24.1987 39.3317 25.0187 39.1715C31.42 37.0704 36 31.0682 36 24.0059C36 15.1668 28.836 8 20 8Z" fill="#1C1C20"/>
</g>
<defs>
<clipPath id="clip0_2161_120">
<rect width="40" height="40" rx="20" fill="white"/>
</clipPath>
</defs>
</svg>
