<svg width="25" height="25" viewBox="0 0 25 25" fill="none" xmlns="http://www.w3.org/2000/svg">
<path d="M10.7335 22.3482L10.5841 23.0831H10.5841L10.7335 22.3482ZM16.7549 20.8654C16.3829 21.0476 16.2291 21.4969 16.4113 21.8689C16.5935 22.2409 17.0428 22.3947 17.4148 22.2125L16.7549 20.8654ZM10.8829 21.6132C6.65878 20.7544 3.4707 16.9874 3.4707 12.4641H1.9707C1.9707 17.7062 5.66648 22.0834 10.5841 23.0831L10.8829 21.6132ZM3.4707 12.4641C3.4707 7.30361 7.61792 3.13086 12.7207 3.13086V1.63086C6.77779 1.63086 1.9707 6.48692 1.9707 12.4641H3.4707ZM12.7207 3.13086C17.8235 3.13086 21.9707 7.30361 21.9707 12.4641H23.4707C23.4707 6.48692 18.6636 1.63086 12.7207 1.63086V3.13086ZM13.4707 20.5306V15.489H11.9707V20.5306H13.4707ZM21.9707 12.4641C21.9707 16.1606 19.8415 19.3534 16.7549 20.8654L17.4148 22.2125C21.0005 20.4561 23.4707 16.7498 23.4707 12.4641H21.9707ZM10.5841 23.0831C12.2421 23.4202 13.4707 21.9989 13.4707 20.5306H11.9707C11.9707 21.2899 11.3904 21.7164 10.8829 21.6132L10.5841 23.0831Z" fill="#05E2BF"/>
<path d="M9.7207 12.1809C9.7207 11.739 10.0789 11.3809 10.5207 11.3809H14.9207C15.3625 11.3809 15.7207 11.739 15.7207 12.1809V12.3809C15.7207 14.0377 14.3776 15.3809 12.7207 15.3809C11.0638 15.3809 9.7207 14.0377 9.7207 12.3809V12.1809Z" stroke="#05E2BF" stroke-width="1.5"/>
<path d="M14.2207 11.3809V9.38086" stroke="#05E2BF" stroke-width="1.5" stroke-linecap="round"/>
<path d="M11.2207 11.3809V9.38086" stroke="#05E2BF" stroke-width="1.5" stroke-linecap="round"/>
</svg>
