<svg width="40" height="40" viewBox="0 0 40 40" fill="none" xmlns="http://www.w3.org/2000/svg">
<rect width="40" height="40" rx="20" fill="#1C1C20"/>
<path d="M27.2008 28.4V23.126C27.2008 20.534 26.6428 18.554 23.6188 18.554C22.1608 18.554 21.1888 19.346 20.7928 20.102H20.7568V18.788H17.8948V28.4H20.8828V23.63C20.8828 22.37 21.1168 21.164 22.6648 21.164C24.1948 21.164 24.2128 22.586 24.2128 23.702V28.382H27.2008V28.4ZM13.0348 18.788H16.0228V28.4H13.0348V18.788ZM14.5288 14C13.5748 14 12.8008 14.774 12.8008 15.728C12.8008 16.682 13.5748 17.474 14.5288 17.474C15.4828 17.474 16.2568 16.682 16.2568 15.728C16.2568 14.774 15.4828 14 14.5288 14Z" fill="white"/>
</svg>
