<svg viewBox="0 0 16 17" fill="none" xmlns="http://www.w3.org/2000/svg">
<path d="M13.0008 12.9969V9.33552C13.0008 7.53608 12.6134 6.16151 10.5141 6.16151C9.50187 6.16151 8.82709 6.71134 8.55217 7.23618H8.52718V6.32396H6.5403V12.9969H8.61465V9.68541C8.61465 8.81068 8.7771 7.97345 9.85177 7.97345C10.9139 7.97345 10.9264 8.96064 10.9264 9.73539V12.9844H13.0008V12.9969ZM3.16636 6.32396H5.24071V12.9969H3.16636V6.32396ZM4.20353 3C3.54124 3 3.00391 3.53733 3.00391 4.19963C3.00391 4.86192 3.54124 5.41175 4.20353 5.41175C4.86582 5.41175 5.40316 4.86192 5.40316 4.19963C5.40316 3.53733 4.86582 3 4.20353 3Z" fill="currentColor"/>
</svg>
