<svg width="25" height="25" viewBox="0 0 25 25" fill="none" xmlns="http://www.w3.org/2000/svg">
<path d="M8.30051 15.3886L8.83004 14.8574L8.30051 15.3886ZM8.30051 9.91164L7.77098 9.38051L8.30051 9.91164ZM15.1673 16.7578L14.6377 16.2267L15.1673 16.7578ZM9.67386 16.7578L9.14433 17.2889L9.67386 16.7578ZM12.4206 18.6942V19.4442V18.6942ZM21.0141 10.9285L21.5437 11.4596L21.0141 10.9285ZM14.1474 4.08232L14.6769 4.61345L14.1474 4.08232ZM11.5767 14.5505C11.8701 14.258 11.8708 13.7831 11.5783 13.4898C11.2859 13.1965 10.811 13.1958 10.5177 13.4882L11.5767 14.5505ZM6.29403 11.9121L6.82436 11.3818L6.82356 11.381L6.29403 11.9121ZM10.6403 7.80282C10.9886 8.02699 11.4527 7.92636 11.6769 7.57806C11.901 7.22975 11.8004 6.76566 11.4521 6.54148L10.6403 7.80282ZM10.417 6.76718L10.8229 6.13651V6.13651L10.417 6.76718ZM7.84735 5.44866L7.95699 4.70672L7.84735 5.44866ZM2.94585 8.4041L3.47537 8.93523H3.47537L2.94585 8.4041ZM6.06011 5.67707L6.34754 6.3698H6.34754L6.06011 5.67707ZM3.58384 9.80689L3.30756 10.5041H3.30756L3.58384 9.80689ZM3.70706 9.8562L3.99277 9.16275L3.70706 9.8562ZM5.33329 10.9542L5.86282 10.4231L5.33329 10.9542ZM5.23909 10.861L4.71682 11.3992L5.23909 10.861ZM3.2052 9.65686L3.48148 8.9596H3.48148L3.2052 9.65686ZM13.2207 18.8809L12.6904 19.4112C12.702 19.4228 12.7139 19.434 12.7263 19.4448L13.2207 18.8809ZM18.5445 13.6127C18.3194 13.265 17.8551 13.1657 17.5074 13.3908C17.1597 13.6159 17.0603 14.0803 17.2854 14.428L18.5445 13.6127ZM18.3212 14.6477L17.6916 15.0553L18.3212 14.6477ZM19.6437 17.2096L20.3855 17.0993L19.6437 17.2096ZM16.6793 22.0964L17.2089 22.6275L16.6793 22.0964ZM19.4146 18.9915L20.1067 19.2804L19.4146 18.9915ZM15.4697 21.9555L16.1664 21.6778L15.4697 21.9555ZM14.9956 20.8636L15.6531 20.503L14.9956 20.8636ZM13.7436 19.3393L14.2731 18.8082L14.2561 18.7912L14.238 18.7754L13.7436 19.3393ZM14.5615 20.2058L15.1518 19.7431L14.5615 20.2058ZM16.5953 22.1802L16.0658 21.6491L16.5953 22.1802ZM6.47026 12.0883L7.16611 12.3682L6.47026 12.0883ZM20.4846 10.3974L14.6377 16.2267L15.6968 17.2889L21.5437 11.4596L20.4846 10.3974ZM10.2034 16.2267L8.83004 14.8574L7.77098 15.9197L9.14433 17.2889L10.2034 16.2267ZM8.83004 10.4428L14.6769 4.61345L13.6178 3.5512L7.77098 9.38051L8.83004 10.4428ZM18.2674 3.13086H18.8363V1.63086H18.2674V3.13086ZM21.9707 6.25363V6.82079H23.4707V6.25363H21.9707ZM18.8363 3.13086C19.773 3.13086 20.4003 3.13244 20.8678 3.19511C21.3139 3.25491 21.5005 3.35774 21.6223 3.47914L22.6814 2.41689C22.2343 1.97113 21.6787 1.79039 21.0671 1.7084C20.4768 1.62928 19.7307 1.63086 18.8363 1.63086V3.13086ZM23.4707 6.25363C23.4707 5.36208 23.4723 4.61774 23.3929 4.02866C23.3105 3.41778 23.1288 2.86295 22.6814 2.41689L21.6223 3.47914C21.7438 3.60023 21.8465 3.78539 21.9063 4.22912C21.9691 4.69466 21.9707 5.31955 21.9707 6.25363H23.4707ZM8.83004 14.8574C8.16761 14.197 7.72537 13.7538 7.43946 13.3802C7.16671 13.0238 7.1083 12.8205 7.1083 12.6501H5.6083C5.6083 13.2818 5.87358 13.8022 6.24824 14.2918C6.60973 14.7642 7.1386 15.2892 7.77098 15.9197L8.83004 14.8574ZM9.14433 17.2889C9.77673 17.9194 10.3033 18.4467 10.777 18.807C11.2681 19.1806 11.7891 19.4442 12.4206 19.4442V17.9442C12.2475 17.9442 12.0426 17.8851 11.6852 17.6132C11.3103 17.328 10.8658 16.8871 10.2034 16.2267L9.14433 17.2889ZM21.5437 11.4596C22.3422 10.6634 22.8991 10.127 23.1915 9.42319L21.8063 8.84769C21.6552 9.21145 21.3701 9.51451 20.4846 10.3974L21.5437 11.4596ZM21.9707 6.82079C21.9707 8.06938 21.9574 8.48418 21.8063 8.84769L23.1915 9.42319C23.484 8.71914 23.4707 7.9467 23.4707 6.82079H21.9707ZM14.6769 4.61345C15.5621 3.73086 15.8664 3.44617 16.2321 3.29517L15.6595 1.90874C14.9544 2.19994 14.4167 2.75476 13.6178 3.5512L14.6769 4.61345ZM18.2674 1.63086C17.1377 1.63086 16.3644 1.61765 15.6595 1.90874L16.2321 3.29517C16.598 3.14407 17.0155 3.13086 18.2674 3.13086V1.63086ZM9.51672 16.6043L11.5767 14.5505L10.5177 13.4882L8.45765 15.5421L9.51672 16.6043ZM11.4521 6.54148L10.8229 6.13651L10.0111 7.39784L10.6403 7.80282L11.4521 6.54148ZM10.8229 6.13651C10.2015 5.73656 9.6999 5.41312 9.26821 5.18051C8.82711 4.94282 8.41389 4.77424 7.95699 4.70672L7.7377 6.1906C7.9571 6.22303 8.19759 6.30752 8.55667 6.501C8.92517 6.69957 9.37027 6.98542 10.0111 7.39784L10.8229 6.13651ZM3.47537 8.93523C4.03844 8.37387 4.64237 7.77196 5.18511 7.27684C5.45628 7.02947 5.70323 6.81702 5.91505 6.65376C6.13848 6.48154 6.28022 6.39774 6.34754 6.3698L5.77268 4.98433C5.51544 5.09106 5.24564 5.27586 4.99934 5.4657C4.74141 5.6645 4.46041 5.90757 4.17418 6.16868C3.60214 6.69053 2.9735 7.31747 2.41632 7.87296L3.47537 8.93523ZM7.95699 4.70672C7.22232 4.59815 6.4669 4.69629 5.77268 4.98433L6.34754 6.3698C6.79821 6.18281 7.27956 6.1229 7.7377 6.1906L7.95699 4.70672ZM2.92891 10.3541L3.30756 10.5041L3.86013 9.10964L3.48148 8.9596L2.92891 10.3541ZM4.80376 11.4854L5.76449 12.4432L6.82356 11.381L5.86282 10.4231L4.80376 11.4854ZM3.30756 10.5041C3.37119 10.5294 3.39666 10.5395 3.42136 10.5496L3.99277 9.16275C3.95653 9.14782 3.92017 9.13343 3.86013 9.10964L3.30756 10.5041ZM5.86282 10.4231C5.81714 10.3776 5.78947 10.35 5.76136 10.3227L4.71682 11.3992C4.73595 11.4178 4.75534 11.4371 4.80376 11.4854L5.86282 10.4231ZM3.42136 10.5496C3.90351 10.7483 4.34316 11.0367 4.71682 11.3992L5.76136 10.3227C5.25097 9.82746 4.65071 9.43383 3.99277 9.16275L3.42136 10.5496ZM2.41632 7.87296C1.64253 8.64441 1.91536 9.9525 2.92891 10.3541L3.48148 8.9596C3.47703 8.95784 3.47522 8.95651 3.47494 8.9563C3.47457 8.95603 3.47445 8.9559 3.47432 8.95574C3.47386 8.95517 3.47216 8.95267 3.47122 8.94814C3.47028 8.9436 3.47089 8.94084 3.47099 8.9405C3.47099 8.94048 3.47096 8.94051 3.47108 8.94031C3.47114 8.94021 3.47214 8.93846 3.47537 8.93523L2.41632 7.87296ZM17.2854 14.428L17.6916 15.0553L18.9507 14.2401L18.5445 13.6127L17.2854 14.428ZM16.1498 21.5653L16.0658 21.6491L17.1248 22.7113L17.2089 22.6275L16.1498 21.5653ZM17.6916 15.0553C18.1053 15.6942 18.392 16.1379 18.591 16.5051C18.785 16.863 18.8695 17.1021 18.9018 17.3199L20.3855 17.0993C20.3176 16.6428 20.1482 16.2302 19.9097 15.7903C19.6764 15.3597 19.3519 14.8596 18.9507 14.2401L17.6916 15.0553ZM17.2089 22.6275C17.766 22.072 18.3949 21.4453 18.9183 20.8749C19.1802 20.5895 19.424 20.3094 19.6235 20.0522C19.8138 19.8066 19.9994 19.5374 20.1067 19.2804L18.7225 18.7026C18.6947 18.7692 18.6108 18.9102 18.4381 19.133C18.2744 19.3441 18.0613 19.5903 17.8132 19.8607C17.3166 20.4018 16.7129 21.0039 16.1498 21.5653L17.2089 22.6275ZM18.9018 17.3199C18.9695 17.7754 18.9097 18.2541 18.7225 18.7026L20.1067 19.2804C20.396 18.5874 20.4946 17.8331 20.3855 17.0993L18.9018 17.3199ZM14.238 18.7754L13.7151 18.3169L12.7263 19.4448L13.2491 19.9032L14.238 18.7754ZM16.1664 21.6778C15.9517 21.1392 15.8227 20.8121 15.6531 20.503L14.338 21.2243C14.4533 21.4345 14.5454 21.6622 14.773 22.2332L16.1664 21.6778ZM13.214 19.8704C13.6499 20.3049 13.8232 20.4795 13.9712 20.6684L15.1518 19.7431C14.9343 19.4656 14.6842 19.218 14.2731 18.8082L13.214 19.8704ZM15.6531 20.503C15.507 20.2365 15.3393 19.9824 15.1518 19.7431L13.9712 20.6684C14.1084 20.8435 14.2311 21.0294 14.338 21.2243L15.6531 20.503ZM17.3844 9.38051C16.9187 9.84488 16.1626 9.84488 15.6968 9.38051L14.6377 10.4428C15.6889 11.4908 17.3923 11.4908 18.4435 10.4428L17.3844 9.38051ZM15.6968 9.38051C15.2323 8.91738 15.2323 8.16743 15.6968 7.7043L14.6377 6.64205C13.5853 7.69133 13.5853 9.39348 14.6377 10.4428L15.6968 9.38051ZM15.6968 7.7043C16.1626 7.23992 16.9187 7.23992 17.3844 7.7043L18.4435 6.64205C17.3923 5.59401 15.6889 5.59401 14.6377 6.64205L15.6968 7.7043ZM17.3844 7.7043C17.849 8.16743 17.849 8.91738 17.3844 9.38051L18.4435 10.4428C19.4959 9.39348 19.4959 7.69133 18.4435 6.64205L17.3844 7.7043ZM16.0658 21.6491C16.0721 21.6428 16.0826 21.6363 16.0942 21.633C16.104 21.6302 16.1114 21.6306 16.1166 21.6316C16.1217 21.6327 16.1303 21.6355 16.1406 21.6437C16.1523 21.6531 16.1617 21.666 16.1664 21.6778L14.773 22.2332C15.157 23.1964 16.4049 23.4291 17.1248 22.7113L16.0658 21.6491ZM14.6377 16.2267C14.1264 16.7365 13.7417 17.1194 13.4111 17.4049C13.0793 17.6915 12.8557 17.8313 12.6803 17.8959L13.1987 19.3034C13.6266 19.1458 14.0125 18.8675 14.3915 18.5401C14.7719 18.2117 15.1994 17.7848 15.6968 17.2889L14.6377 16.2267ZM12.6803 17.8959C12.5879 17.9299 12.5054 17.9442 12.4206 17.9442V19.4442C12.6913 19.4442 12.9489 19.3954 13.1987 19.3034L12.6803 17.8959ZM13.751 18.3505L13.4698 18.0693L12.4092 19.13L12.6904 19.4112L13.751 18.3505ZM7.77098 9.38051C7.2855 9.86453 6.86635 10.2819 6.54093 10.6533C6.21685 11.0231 5.93968 11.3975 5.77442 11.8085L7.16611 12.3682C7.23709 12.1916 7.38309 11.9682 7.66909 11.6418C7.95375 11.317 8.3316 10.9397 8.83004 10.4428L7.77098 9.38051ZM5.77442 11.8085C5.66652 12.0768 5.6083 12.3551 5.6083 12.6501H7.1083C7.1083 12.5599 7.12472 12.4711 7.16611 12.3682L5.77442 11.8085ZM5.7637 12.4424L5.93993 12.6187L7.00059 11.558L6.82436 11.3818L5.7637 12.4424Z" fill="#05E2BF"/>
</svg>
