<svg width="40" height="40" viewBox="0 0 40 40" fill="none" xmlns="http://www.w3.org/2000/svg">
<rect width="40" height="40" rx="20" fill="#1C1C20"/>
<path d="M25.451 15.8669C23.3946 15.8669 21.8426 17.2249 21.2218 19.3589C20.2517 17.8457 19.4757 16.1385 19.0489 14.6641H16.8761V20.3678C16.8761 21.493 15.9449 22.4242 14.8196 22.4242C13.6944 22.4242 12.7632 21.493 12.7632 20.3678V14.7029H10.668V20.4066C10.668 22.7734 12.5692 24.6746 14.8972 24.6746C17.2253 24.6746 19.1265 22.7734 19.1265 20.4066V19.4365C19.5533 20.2902 20.0965 21.2214 20.6786 22.0362L19.3205 28.3607H21.5322L22.4634 23.7434C23.317 24.2866 24.287 24.597 25.451 24.597C27.8179 24.597 29.7579 22.657 29.7579 20.1738C29.7579 17.8069 27.8179 15.8669 25.451 15.8669ZM25.451 22.4242C24.5974 22.4242 23.705 22.0362 23.0066 21.4542L23.2394 20.6006V20.5618C23.3946 19.6306 23.899 18.0785 25.4898 18.0785C26.6927 18.0785 27.6627 19.0485 27.6627 20.2514C27.6239 21.4542 26.5763 22.4242 25.451 22.4242Z" fill="white"/>
</svg>
